<?xml version="1.0" encoding="UTF-8"?>
<svg width="611px" height="272px" viewBox="0 0 611 272" version="1.1" xmlns="http://www.w3.org/2000/svg" xmlns:xlink="http://www.w3.org/1999/xlink">
    <!-- Generator: Sketch 51.3 (57544) - http://www.bohemiancoding.com/sketch -->
    <title>Twig</title>
    <desc>Created with Sketch.</desc>
    <defs></defs>
    <g id="Page-1" stroke="none" stroke-width="1" fill="none" fill-rule="evenodd">
        <path d="M60.4,215 L60.4,22.7 L0.4,22.7 L0.4,0.5 L145.9,0.5 L145.9,22.7 L85.9,22.7 L85.9,215 L60.4,215 Z M220.3,215 L187,215 L168.7,155.3 C164.899981,143.499941 159.500035,126.200114 152.5,103.4 C145.499965,80.599886 140.800012,65.300039 138.4,57.5 L165.4,57.5 L188.8,139.1 C190.600009,146.300036 195.699958,164.799851 204.1,194.6 L204.7,194.6 C206.70001,185.999957 209.599981,174.450072 213.4,159.95 C217.200019,145.449927 219.599995,136.300019 220.6,132.5 L239.8,57.5 L270.7,57.5 L287.8,128.9 C289.400008,135.300032 291.899983,145.749928 295.3,160.25 C298.700017,174.750072 301.39999,186.099959 303.4,194.3 L304,194.3 C306.200011,186.499961 309.599977,174.900077 314.2,159.5 C318.800023,144.099923 322.199989,132.700037 324.4,125.3 L344.5,57.5 L369.4,57.5 C366.199984,66.900047 355.800088,99.499721 338.2,155.3 C335.799988,162.900038 329.60005,182.799839 319.6,215 L286.3,215 L271.3,154.1 C269.499991,146.899964 267.500011,138.550047 265.3,129.05 C263.099989,119.549952 261.00001,110.150046 259,100.85 C256.99999,91.5499535 255.700003,85.400015 255.1,82.4 L254.2,82.4 C245.399956,120.000188 239.500015,144.299945 236.5,155.3 L220.3,215 Z M423.7,30.8 L398.2,30.8 L398.2,0.5 L423.7,0.5 L423.7,30.8 Z M398.8,57.5 L423.1,57.5 L423.1,215 L398.8,215 L398.8,57.5 Z M535.9,251.6 C552.900085,251.6 565.599958,246.000056 574,234.8 C582.400042,223.599944 586.6,207.900101 586.6,187.7 L586.6,177.5 C581.799976,186.300044 574.750046,193.549971 565.45,199.25 C556.149953,204.950029 544.900066,207.8 531.7,207.8 C509.899891,207.8 492.400066,200.650072 479.2,186.35 C465.999934,172.049928 459.4,153.600113 459.4,131 C459.4,107.799884 466.249932,89.0500715 479.95,74.75 C493.650068,60.4499285 510.999895,53.3 532,53.3 C556.400122,53.3 574.59994,62.29991 586.6,80.3 C586.399999,78.499991 586.3,75.900017 586.3,72.5 L586.3,57.5 L610.9,57.5 L610.9,183.8 C610.9,211.200137 604.550063,232.699922 591.85,248.3 C579.149936,263.900078 559.80013,271.7 533.8,271.7 C515.999911,271.7 501.000061,266.70005 488.8,256.7 C476.599939,246.69995 468.50002,234.500072 464.5,220.1 L490,220.1 C497.000035,241.100105 512.299882,251.6 535.9,251.6 Z M536.5,187.7 C550.900072,187.7 562.849953,182.550052 572.35,172.25 C581.850047,161.949948 586.6,147.80009 586.6,129.8 C586.6,112.999916 582.100045,99.4500515 573.1,89.15 C564.099955,78.8499485 551.900077,73.7 536.5,73.7 C521.099923,73.7 508.900045,78.9499475 499.9,89.45 C490.899955,99.9500525 486.4,113.699915 486.4,130.7 C486.4,147.500084 490.849956,161.199947 499.75,171.8 C508.650044,182.400053 520.899922,187.7 536.5,187.7 Z" id="Twig" fill="#FFFFFF"></path>
    </g>
</svg>