<?xml version="1.0" encoding="UTF-8"?>
<svg width="591px" height="366px" viewBox="0 0 591 366" version="1.1" xmlns="http://www.w3.org/2000/svg" xmlns:xlink="http://www.w3.org/1999/xlink">
    <!-- Generator: Sketch 51.3 (57544) - http://www.bohemiancoding.com/sketch -->
    <title>Group 33</title>
    <desc>Created with Sketch.</desc>
    <defs>
        <rect id="path-1" x="0" y="0" width="591" height="366"></rect>
        <rect id="path-3" x="0" y="0" width="591" height="366"></rect>
    </defs>
    <g id="Page-1" stroke="none" stroke-width="1" fill="none" fill-rule="evenodd">
        <g id="Group-33">
            <g id="Group-22-Copy-7">
                <mask id="mask-2" fill="white">
                    <use xlink:href="#path-1"></use>
                </mask>
                <g id="Rectangle-4"></g>
                <g id="Group-Copy-12" mask="url(#mask-2)">
                    <mask id="mask-4" fill="white">
                        <use xlink:href="#path-3"></use>
                    </mask>
                    <g id="Rectangle">
                        <use fill="#F2F2F2" xlink:href="#path-3"></use>
                        <use fill-opacity="0.06" fill="#000000" xlink:href="#path-3"></use>
                    </g>
                    <g id="Group" mask="url(#mask-4)">
                        <g transform="translate(426.522691, 9.385732)"></g>
                    </g>
                </g>
            </g>
            <g id="Group-39" transform="translate(36.000000, 39.500000)" fill="#000000">
                <circle id="Oval-2" cx="4.5" cy="4.5" r="4.5"></circle>
                <circle id="Oval-2-Copy" cx="4.5" cy="51.5" r="4.5"></circle>
                <circle id="Oval-2-Copy-2" cx="4.5" cy="97.5" r="4.5"></circle>
                <circle id="Oval-2-Copy-3" cx="4.5" cy="144.5" r="4.5"></circle>
                <circle id="Oval-2-Copy-4" cx="4.5" cy="190.5" r="4.5"></circle>
                <circle id="Oval-2-Copy-5" cx="4.5" cy="236.5" r="4.5"></circle>
                <circle id="Oval-2-Copy-6" cx="4.5" cy="282.5" r="4.5"></circle>
                <g id="Group-37" transform="translate(51.000000, 278.000000)">
                    <circle id="Oval-2-Copy-7" cx="4.5" cy="4.5" r="4.5"></circle>
                    <circle id="Oval-2-Copy-8" cx="55.5" cy="4.5" r="4.5"></circle>
                    <circle id="Oval-2-Copy-9" cx="106.5" cy="4.5" r="4.5"></circle>
                    <circle id="Oval-2-Copy-10" cx="157.5" cy="4.5" r="4.5"></circle>
                    <circle id="Oval-2-Copy-11" cx="208.5" cy="4.5" r="4.5"></circle>
                    <circle id="Oval-2-Copy-12" cx="259.5" cy="4.5" r="4.5"></circle>
                    <circle id="Oval-2-Copy-13" cx="310.5" cy="4.5" r="4.5"></circle>
                    <circle id="Oval-2-Copy-14" cx="361.5" cy="4.5" r="4.5"></circle>
                    <circle id="Oval-2-Copy-15" cx="411.5" cy="4.5" r="4.5"></circle>
                    <circle id="Oval-2-Copy-16" cx="463.5" cy="4.5" r="4.5"></circle>
                </g>
                <g id="Group-37-Copy" transform="translate(51.000000, 232.000000)">
                    <circle id="Oval-2-Copy-7" cx="4.5" cy="4.5" r="4.5"></circle>
                    <circle id="Oval-2-Copy-8" cx="55.5" cy="4.5" r="4.5"></circle>
                    <circle id="Oval-2-Copy-9" cx="106.5" cy="4.5" r="4.5"></circle>
                    <circle id="Oval-2-Copy-10" cx="157.5" cy="4.5" r="4.5"></circle>
                    <circle id="Oval-2-Copy-11" cx="208.5" cy="4.5" r="4.5"></circle>
                    <circle id="Oval-2-Copy-12" cx="259.5" cy="4.5" r="4.5"></circle>
                    <circle id="Oval-2-Copy-13" cx="310.5" cy="4.5" r="4.5"></circle>
                    <circle id="Oval-2-Copy-14" cx="361.5" cy="4.5" r="4.5"></circle>
                    <circle id="Oval-2-Copy-15" cx="411.5" cy="4.5" r="4.5"></circle>
                    <circle id="Oval-2-Copy-16" cx="463.5" cy="4.5" r="4.5"></circle>
                </g>
                <g id="Group-37-Copy-2" transform="translate(51.000000, 186.000000)">
                    <circle id="Oval-2-Copy-7" cx="4.5" cy="4.5" r="4.5"></circle>
                    <circle id="Oval-2-Copy-8" cx="55.5" cy="4.5" r="4.5"></circle>
                    <circle id="Oval-2-Copy-9" cx="106.5" cy="4.5" r="4.5"></circle>
                    <circle id="Oval-2-Copy-10" cx="157.5" cy="4.5" r="4.5"></circle>
                    <circle id="Oval-2-Copy-11" cx="208.5" cy="4.5" r="4.5"></circle>
                    <circle id="Oval-2-Copy-12" cx="259.5" cy="4.5" r="4.5"></circle>
                    <circle id="Oval-2-Copy-13" cx="310.5" cy="4.5" r="4.5"></circle>
                    <circle id="Oval-2-Copy-14" cx="361.5" cy="4.5" r="4.5"></circle>
                    <circle id="Oval-2-Copy-15" cx="411.5" cy="4.5" r="4.5"></circle>
                    <circle id="Oval-2-Copy-16" cx="463.5" cy="4.5" r="4.5"></circle>
                </g>
                <g id="Group-37-Copy-3" transform="translate(51.000000, 140.000000)">
                    <circle id="Oval-2-Copy-7" cx="4.5" cy="4.5" r="4.5"></circle>
                    <circle id="Oval-2-Copy-8" cx="55.5" cy="4.5" r="4.5"></circle>
                    <circle id="Oval-2-Copy-9" cx="106.5" cy="4.5" r="4.5"></circle>
                    <circle id="Oval-2-Copy-10" cx="157.5" cy="4.5" r="4.5"></circle>
                    <circle id="Oval-2-Copy-11" cx="208.5" cy="4.5" r="4.5"></circle>
                    <circle id="Oval-2-Copy-12" cx="259.5" cy="4.5" r="4.5"></circle>
                    <circle id="Oval-2-Copy-13" cx="310.5" cy="4.5" r="4.5"></circle>
                    <circle id="Oval-2-Copy-14" cx="361.5" cy="4.5" r="4.5"></circle>
                    <circle id="Oval-2-Copy-15" cx="411.5" cy="4.5" r="4.5"></circle>
                    <circle id="Oval-2-Copy-16" cx="463.5" cy="4.5" r="4.5"></circle>
                </g>
                <g id="Group-37-Copy-4" transform="translate(51.000000, 93.000000)">
                    <circle id="Oval-2-Copy-7" cx="4.5" cy="4.5" r="4.5"></circle>
                    <circle id="Oval-2-Copy-8" cx="55.5" cy="4.5" r="4.5"></circle>
                    <circle id="Oval-2-Copy-9" cx="106.5" cy="4.5" r="4.5"></circle>
                    <circle id="Oval-2-Copy-10" cx="157.5" cy="4.5" r="4.5"></circle>
                    <circle id="Oval-2-Copy-11" cx="208.5" cy="4.5" r="4.5"></circle>
                    <circle id="Oval-2-Copy-12" cx="259.5" cy="4.5" r="4.5"></circle>
                    <circle id="Oval-2-Copy-13" cx="310.5" cy="4.5" r="4.5"></circle>
                    <circle id="Oval-2-Copy-14" cx="361.5" cy="4.5" r="4.5"></circle>
                    <circle id="Oval-2-Copy-15" cx="411.5" cy="4.5" r="4.5"></circle>
                    <circle id="Oval-2-Copy-16" cx="463.5" cy="4.5" r="4.5"></circle>
                </g>
                <g id="Group-37-Copy-5" transform="translate(51.000000, 46.000000)">
                    <circle id="Oval-2-Copy-7" cx="4.5" cy="4.5" r="4.5"></circle>
                    <circle id="Oval-2-Copy-8" cx="55.5" cy="4.5" r="4.5"></circle>
                    <circle id="Oval-2-Copy-9" cx="106.5" cy="4.5" r="4.5"></circle>
                    <circle id="Oval-2-Copy-10" cx="157.5" cy="4.5" r="4.5"></circle>
                    <circle id="Oval-2-Copy-11" cx="208.5" cy="4.5" r="4.5"></circle>
                    <circle id="Oval-2-Copy-12" cx="259.5" cy="4.5" r="4.5"></circle>
                    <circle id="Oval-2-Copy-13" cx="310.5" cy="4.5" r="4.5"></circle>
                    <circle id="Oval-2-Copy-14" cx="361.5" cy="4.5" r="4.5"></circle>
                    <circle id="Oval-2-Copy-15" cx="411.5" cy="4.5" r="4.5"></circle>
                    <circle id="Oval-2-Copy-16" cx="463.5" cy="4.5" r="4.5"></circle>
                </g>
                <g id="Group-37-Copy-6" transform="translate(51.000000, 0.000000)">
                    <circle id="Oval-2-Copy-7" cx="4.5" cy="4.5" r="4.5"></circle>
                    <circle id="Oval-2-Copy-8" cx="55.5" cy="4.5" r="4.5"></circle>
                    <circle id="Oval-2-Copy-9" cx="106.5" cy="4.5" r="4.5"></circle>
                    <circle id="Oval-2-Copy-10" cx="157.5" cy="4.5" r="4.5"></circle>
                    <circle id="Oval-2-Copy-11" cx="208.5" cy="4.5" r="4.5"></circle>
                    <circle id="Oval-2-Copy-12" cx="259.5" cy="4.5" r="4.5"></circle>
                    <circle id="Oval-2-Copy-13" cx="310.5" cy="4.5" r="4.5"></circle>
                    <circle id="Oval-2-Copy-14" cx="361.5" cy="4.5" r="4.5"></circle>
                    <circle id="Oval-2-Copy-15" cx="411.5" cy="4.5" r="4.5"></circle>
                    <circle id="Oval-2-Copy-16" cx="463.5" cy="4.5" r="4.5"></circle>
                </g>
            </g>
            <g id="Group-36" transform="translate(36.000000, 36.000000)">
                <g id="Group-34" transform="translate(253.000000, 45.000000)" fill="#2EC2A4">
                    <rect id="Rectangle-23-Copy" x="0" y="0" width="116" height="61"></rect>
                </g>
                <g id="Group-31">
                    <rect id="Rectangle-22-Copy-2" fill="#FFB6BE" x="0" y="140" width="61" height="61"></rect>
                    <rect id="Rectangle-22-Copy-7" fill="#99A3AD" x="204" y="234" width="61" height="61"></rect>
                    <rect id="Rectangle-22-Copy-6" fill="#8071A5" x="102" y="140" width="113" height="60"></rect>
                    <polyline id="Rectangle-22-Copy-3" fill="#EE8564" points="0 271 0 234 37 234"></polyline>
                    <polyline id="Rectangle-22-Copy-8" fill="#EE8564" transform="translate(350.500000, 18.500000) scale(-1, 1) translate(-350.500000, -18.500000) " points="332 37 332 0 369 0"></polyline>
                </g>
                <g id="Group-30">
                    <rect id="Rectangle-22" fill="#99A3AD" x="0" y="0" width="61" height="61"></rect>
                    <polygon id="Rectangle-22-Copy" fill="#AC7368" points="102 0 163 0 163 58.4583333 102 116.916667"></polygon>
                </g>
                <g id="Group-35" transform="translate(356.000000, 0.000000)">
                    <rect id="Rectangle-23-Copy-4" fill="#99A3AD" x="102" y="0" width="62" height="109.770492"></rect>
                    <polygon id="Rectangle-22-Copy-5" fill="#64A2F1" points="0 140 117 140 117 194 0 248"></polygon>
                </g>
            </g>
        </g>
    </g>
</svg>